<!-- Generated by IcoMoon.io -->
<svg version="1.1" xmlns="http://www.w3.org/2000/svg" width="32" height="32" viewBox="0 0 32 32">
<title>meditation</title>
<path d="M30.724 24.553l-1.106-0.553c0.237-0.263 0.383-0.614 0.383-0.998 0-0 0-0.001 0-0.001v0c0-0.276-0.224-0.5-0.5-0.5v0h-2.75l-2.78-3.707-1.173-6.254c-0.225-1.168-1.239-2.039-2.457-2.039h-2.34v-1.263c0.138-0.126 0.262-0.263 0.372-0.411l0.005-0.008c0.448 0.714 1.231 1.181 2.123 1.182h1c0.276 0 0.5-0.224 0.5-0.5 0-0.082-0.020-0.158-0.054-0.226l0.001 0.003-0.447-0.894v-3.882c-0.002-1.38-1.12-2.498-2.5-2.5h-0.537c-0.633-0.618-1.501-1-2.457-1-0.002 0-0.005 0-0.007 0h0c-1.93 0-3.5 1.545-3.5 3.443 0 0.205 0.009 0.411 0.026 0.618-0.321 0.251-0.526 0.638-0.526 1.073 0 0.379 0.155 0.722 0.405 0.968l0 0c0.179 0.176 0.406 0.304 0.66 0.361l0.009 0.002c0.011 0.053 0.024 0.106 0.037 0.159l0.074 0.282c0.145 0.53 0.429 0.982 0.811 1.327l0.002 0.002v1.263h-1c0 0-0 0-0 0-0.247 0-0.452 0.179-0.493 0.415l-0 0.003-0.47 2.821c-0.614 0.559-0.998 1.362-0.998 2.254 0 0.003 0 0.005 0 0.008v-0c0 0.223 0.024 0.441 0.069 0.65l-0.004-0.020-0.573 3.151-4.825 5.789-2.707 0.902-1-0.333v-0.831l1.724-0.862c0.165-0.084 0.276-0.253 0.276-0.447 0-0.276-0.224-0.5-0.5-0.5h2c0.163 0 0.308-0.078 0.399-0.199l0.001-0.001 3-4c0.044-0.058 0.076-0.128 0.091-0.205l0.001-0.003 1.194-6.369c0.135-0.701 0.744-1.223 1.474-1.223v0-1c-1.218 0-2.232 0.871-2.455 2.023l-0.003 0.016-1.173 6.254-2.78 3.707h-2.75c-0.276 0-0.5 0.224-0.5 0.5v0c0 0 0 0.001 0 0.002 0 0.384 0.145 0.735 0.384 1l-0.001-0.001-1.106 0.553c-0.165 0.084-0.276 0.252-0.276 0.447v1.5c0 0 0 0 0 0 0 0.22 0.142 0.406 0.338 0.473l0.004 0.001 1.378 0.459c-0.13 0.284-0.21 0.616-0.219 0.965l-0 0.003q0 0.006 0 0.012v0.012c-0 0.013-0.001 0.027-0.001 0.040 0.002 1.399 1.135 2.532 2.534 2.534h12.466v-1h-5.544l4.044-0.919 4.044 0.919h-1.544v1h8.466c1.4-0.002 2.535-1.138 2.535-2.539 0-0.372-0.080-0.726-0.224-1.044l0.006 0.016 1.376-0.459c0.2-0.068 0.342-0.255 0.342-0.474 0 0 0-0 0-0v0-1.5c0-0.195-0.111-0.363-0.274-0.446l-0.003-0.001zM19 7.461c0.581-0.162 1-0.687 1-1.309 0-0.005-0-0.011-0-0.016v0.001c0-0.002 0-0.004 0-0.006 0-0.367-0.142-0.701-0.374-0.949l0.001 0.001c-0.046-0.049-0.095-0.093-0.147-0.134l-0.003-0.002q0.023-0.301 0.024-0.602c0-0 0-0.001 0-0.001 0-0.519-0.117-1.011-0.327-1.451l0.009 0.020c0.746 0.095 1.317 0.725 1.318 1.489v4c0 0 0 0 0 0 0 0.082 0.020 0.158 0.054 0.226l-0.001-0.003 0.138 0.276h-0.191c-0.828-0.001-1.499-0.672-1.5-1.5v-0zM18 6.764c0 1.162-0.751 2.236-1.999 2.236-0.873 0-1.543-0.585-1.837-1.351-0.103-0.263-0.163-0.566-0.164-0.884v-1.186c0.728-0.227 1.625-0.573 2.527-1.481 0.463 0.663 0.947 1.245 1.475 1.783l-0.002-0.002zM17.392 11.488l-0.089 0.443c-0.126 0.614-0.662 1.069-1.304 1.069s-1.178-0.455-1.302-1.060l-0.001-0.009-0.089-0.443c0.226-0.051 0.392-0.25 0.393-0.488v0-1.17c0.298 0.107 0.642 0.17 1 0.17s0.702-0.062 1.021-0.176l-0.021 0.007v1.17c0 0.238 0.166 0.437 0.389 0.488l0.003 0.001zM13.504 4.684q-0.004-0.121-0.004-0.241c0-1.347 1.121-2.443 2.5-2.443s2.5 1.096 2.5 2.443q0 0.245-0.018 0.49c-1.024-1.107-1.433-1.886-1.438-1.895-0.085-0.163-0.252-0.272-0.445-0.272-0.157 0-0.297 0.072-0.388 0.185l-0.001 0.001c-0.949 1.177-1.88 1.484-2.706 1.732zM12.813 14.39c0.094-0.075 0.159-0.183 0.181-0.305l0-0.003 0.43-2.582h0.166l0.125 0.627c0.221 1.075 1.16 1.872 2.284 1.872s2.063-0.797 2.282-1.857l0.003-0.015 0.126-0.627h0.166l0.43 2.582c0.021 0.125 0.087 0.233 0.18 0.307l0.001 0.001c0.473 0.381 0.774 0.96 0.774 1.61 0 0.591-0.248 1.123-0.646 1.499l-0.001 0.001h-6.628c-0.399-0.377-0.647-0.909-0.647-1.5 0-0.649 0.3-1.229 0.77-1.607l0.004-0.003zM22 23.5c-0 0-0 0-0 0-0.043 0-0.085 0.005-0.125 0.016l0.003-0.001-1.486 0.372-0.416-1.041-0.466-1.866 0.453-2.719c0.063-0.057 0.122-0.117 0.18-0.178l0.365 2.007c0.017 0.089 0.055 0.167 0.108 0.231l-0.001-0.001 2.65 3.18zM23.75 24.5c0.138 0 0.25 0.112 0.25 0.25v0c-0.003 0.137-0.113 0.247-0.25 0.25h-0c-0.158 0-0.328-0.020-0.474 0.053l-1.402 0.701-3.765-0.13 0.133-0.533c0.056-0.219 0.252-0.379 0.485-0.379 0.043 0 0.085 0.005 0.125 0.016l-0.003-0.001 1.030 0.258c0.036 0.009 0.078 0.015 0.121 0.015s0.085-0.005 0.124-0.016l-0.003 0.001 0.079-0.020q0.006-0.001 0.012-0.003l1.849-0.462zM18.515 21.121l0.345 1.379h-2.36v-2h-1v2h-2.36l0.345-1.379c0.009-0.036 0.015-0.078 0.015-0.121 0-0.029-0.002-0.057-0.007-0.085l0 0.003-0.403-2.418h5.82l-0.403 2.418c-0.004 0.025-0.007 0.053-0.007 0.082 0 0.043 0.005 0.085 0.016 0.125l-0.001-0.003zM11.384 20.32c0.053-0.064 0.091-0.142 0.107-0.228l0-0.003 0.365-2.007c0.057 0.062 0.117 0.121 0.18 0.178l0.453 2.719-0.466 1.866-0.416 1.041-1.486-0.372c-0.036-0.009-0.078-0.015-0.121-0.015-0 0-0 0-0 0h-1.266zM7.17 25.377c0.114 0.194 0.273 0.351 0.463 0.46l0.006 0.003-0.881 0.030zM7.444 30h-2.409c-0.847-0.001-1.533-0.687-1.534-1.534v-0.004c0-0.008 0.001-0.016 0.001-0.025v-0.016c0.012-0.398 0.173-0.756 0.43-1.022l-0 0c0.605-0.629 1.673-0.489 2.479-0.517l3.497-0.12 3.37 1.685c0.032 0.017 0.070 0.030 0.109 0.040l0.003 0.001 0.355 0.081zM17.108 28.307l-3.439-0.781-4.946-2.473c-0.065-0.033-0.142-0.053-0.223-0.053h-0.25c-0.138 0-0.25-0.112-0.25-0.25s0.112-0.25 0.25-0.25v0h1.688l1.94 0.485c0.036 0.009 0.078 0.015 0.121 0.015s0.085-0.005 0.125-0.016l-0.003 0.001 1.030-0.257c0.036-0.009 0.078-0.015 0.121-0.015 0.233 0 0.429 0.159 0.485 0.375l0.001 0.003 0.257 1.030c0.055 0.214 0.242 0.371 0.467 0.379l0.001 0 2.91 0.1zM17.272 24.849l-0.185 0.74-2.194-0.076-0.166-0.664c-0.169-0.658-0.756-1.136-1.455-1.136-0.129 0-0.254 0.016-0.374 0.047l0.010-0.002-0.192 0.048 0.122-0.306h6.323l0.122 0.305-0.193-0.048c-0.109-0.028-0.234-0.045-0.363-0.045-0.699 0-1.287 0.478-1.453 1.126l-0.002 0.010zM26.965 30h-2.409l-6.471-1.471 0.316-1.895 8.617 0.297c0.824 0.030 1.481 0.705 1.481 1.534 0 0.847-0.686 1.534-1.533 1.535h-0zM24.362 25.84c0.197-0.111 0.356-0.268 0.466-0.457l0.003-0.006 0.41 0.492zM30 26.14l-1 0.333-2.707-0.902-4.825-5.79-0.573-3.151c0.042-0.189 0.065-0.407 0.066-0.63v-0c0-0.002 0-0.005 0-0.008 0-0.892-0.384-1.695-0.995-2.252l-0.002-0.002-0.373-2.238h0.75c0.731 0 1.339 0.522 1.473 1.214l0.002 0.009 1.194 6.369c0.015 0.079 0.047 0.149 0.092 0.209l-0.001-0.001 3 4c0.092 0.122 0.237 0.2 0.4 0.2v0h2c-0.276 0-0.5 0.224-0.5 0.5 0 0.195 0.111 0.363 0.273 0.446l0.003 0.001 1.724 0.862z"></path>
</svg>
