<!-- Generated by IcoMoon.io -->
<svg version="1.1" xmlns="http://www.w3.org/2000/svg" width="32" height="32" viewBox="0 0 32 32">
<title>pranayama</title>
<path d="M3.442 23.696l-0.16 0.481c-0.994 0.429-1.678 1.402-1.678 2.533 0 1.394 1.037 2.546 2.382 2.727l0.014 0.002 4.395 0.574c0.019 0.047 0.039 0.098 0.060 0.147 0.206 0.497 0.687 0.841 1.249 0.841 0.002 0 0.003 0 0.005 0h12.687c0.748-0.001 1.354-0.607 1.354-1.354v-0c0-0.042-0.002-0.084-0.006-0.121-0.030-0.329-0.174-0.62-0.391-0.837v0c-0.679-0.682-1.619-1.104-2.657-1.104-0.003 0-0.007 0-0.010 0h-0.91l-0.266-0.177 5.657-1.862v1.936c0 0.276 0.224 0.5 0.5 0.5v0h3.021c0.276 0 0.5-0.224 0.5-0.5v0-1.768c0.196 0.279 0.313 0.625 0.313 0.999 0 0.888-0.66 1.621-1.517 1.736l-0.009 0.001-3.482 0.454 0.129 0.992 3.482-0.454c1.36-0.181 2.397-1.333 2.397-2.728 0-1.178-0.74-2.182-1.78-2.575l-0.019-0.006-0.145-0.434c-0.017-0.051-0.040-0.094-0.069-0.134l0.001 0.001-2.974-4.163-1.883-6.119c-0.364-1.173-1.44-2.011-2.712-2.011-0.004 0-0.007 0-0.011 0h-2.796c-0 0-0 0-0 0-0.057 0-0.104-0.046-0.104-0.104v-2.153c0.3-0.305 0.532-0.678 0.669-1.095l0.006-0.020c0.411 1.147 1.487 1.953 2.753 1.955h0c0.276 0 0.5-0.224 0.5-0.5v0-4.834c0-0.003 0-0.006 0-0.009 0-1.437-1.043-2.63-2.413-2.864l-0.017-0.002-0.166 0.986c0.911 0.156 1.596 0.94 1.596 1.884 0 0.002 0 0.004 0 0.006v-0 4.268c-0.745-0.208-1.3-0.835-1.4-1.605l-0.001-0.010c0.358-0.258 0.588-0.674 0.588-1.143 0-0.476-0.237-0.897-0.6-1.151l-0.005-0.003v-0.34c0-0.005 0-0.011 0-0.016 0-1.944-1.576-3.521-3.521-3.521s-3.521 1.576-3.521 3.521v0c0 0.116 0.003 0.233 0.009 0.35-0.372 0.256-0.613 0.68-0.613 1.16 0 0.745 0.58 1.355 1.313 1.402l0.004 0 0.071 0.284c0.129 0.509 0.383 0.948 0.727 1.297l-0-0v2.154c-0 0.057-0.047 0.104-0.104 0.104-0 0-0 0-0 0v0h-0.906c-0.241 0-0.442 0.171-0.489 0.398l-0.001 0.003-0.637 3.147-0.556-0.185-1.781 5.345-3.562 4.155c-0.075 0.087-0.12 0.201-0.12 0.325v0 2.521h-2.021v-1.231l0.555-1.664 2.977-4.168c0.030-0.041 0.054-0.089 0.070-0.14l0.001-0.004 1.907-6.196c0.237-0.761 0.935-1.305 1.76-1.305 0.002 0 0.005 0 0.007 0h0.682v-1h-0.682c-0.003 0-0.007-0-0.011-0-1.272 0-2.348 0.837-2.707 1.991l-0.005 0.020-1.883 6.119-2.974 4.163c-0.028 0.038-0.050 0.082-0.066 0.129l-0.001 0.003zM13.083 6.386c-0.034-0.019-0.064-0.042-0.090-0.068v0c-0.073-0.073-0.118-0.173-0.118-0.285 0-0.001 0-0.001 0-0.002v0c0-0.037 0.006-0.072 0.015-0.106l-0.001 0.003c0.044 0.014 0.094 0.022 0.146 0.022 0.017 0 0.033-0.001 0.049-0.002l-0.002 0zM2.604 26.71c0-0.001 0-0.003 0-0.004 0-0.303 0.077-0.587 0.213-0.835l-0.005 0.009v1.599c0 0.025 0.002 0.049 0.006 0.072l-0-0.003c-0.134-0.242-0.213-0.531-0.213-0.839 0-0 0-0 0-0v0zM19.625 28.583h1.062c0.001 0 0.001 0 0.002 0 0.475 0 0.922 0.119 1.313 0.33l-0.015-0.007c0.224 0.119 0.48 0.253 0.639 0.457 0.183 0.234 0.149 0.637-0.23 0.637h-6.363l-3.075-0.401 0.415-1.938s1.114 0.367 1.552 0.511c0.442 0.145 0.937 0.457 1.399 0.222 0.322-0.164 0.625-0.394 0.933-0.585 0.723-0.449 1.514 0.305 2.092 0.691 0.078 0.053 0.174 0.084 0.277 0.084v0zM18.339 26.738c-0.166-0.050-0.358-0.078-0.556-0.078-0.39 0-0.755 0.111-1.063 0.304l0.008-0.005-0.794 0.493-6.334-2.085 2.125 0.193q0.023 0.002 0.046 0.002c0.219-0 0.406-0.142 0.473-0.338l0.001-0.004 0.289-0.866h6.932l0.289 0.866c0.068 0.2 0.255 0.342 0.474 0.342v0q0.023 0 0.046-0.002l2.269-0.206zM13.473 21.355l-0.306-1.834h5.666l-0.306 1.834c-0.004 0.025-0.007 0.053-0.007 0.082 0 0.056 0.009 0.111 0.027 0.161l-0.001-0.004 0.586 1.759h-2.633v-1.917h-1v1.917h-2.633l0.586-1.759c0.016-0.047 0.026-0.102 0.026-0.158 0-0.029-0.002-0.057-0.007-0.085l0 0.003zM20.578 24.529l-1.044-3.132 0.402-2.412c0.34-0.319 0.604-0.715 0.764-1.161l0.006-0.021 0.861 2.583c0.022 0.064 0.054 0.12 0.095 0.168l3.081 3.595zM20.911 12.271c0.002 0 0.004 0 0.007 0 0.825 0 1.523 0.543 1.756 1.292l0.003 0.013 1.906 6.196c0.017 0.055 0.041 0.103 0.072 0.145l-0.001-0.001 2.977 4.168 0.555 1.664v1.231h-2.021v-2.521c0-0.125-0.046-0.238-0.121-0.326l-3.561-4.154-1.781-5.345-0.556 0.185-0.516-2.548zM13.484 4.782q-0.005-0.131-0.005-0.261c0-1.392 1.129-2.521 2.521-2.521s2.521 1.129 2.521 2.521v0 0.012q-0 0.252-0.019 0.505c-1.029-1.133-1.442-1.933-1.451-1.95-0.084-0.165-0.253-0.276-0.447-0.276-0.158 0-0.3 0.074-0.391 0.189l-0.001 0.001c-0.958 1.21-1.895 1.525-2.728 1.78zM17.658 12.171l-0.339 0.678c-0.208 0.423-0.598 0.728-1.065 0.817l-0.009 0.001c-0.074 0.013-0.159 0.021-0.246 0.021-0.566 0-1.056-0.324-1.296-0.797l-0.004-0.008-0.356-0.713c0.384-0.178 0.646-0.56 0.647-1.004v-1.499c0.3 0.118 0.647 0.187 1.010 0.187s0.71-0.069 1.030-0.193l-0.019 0.007v1.499c0.001 0.444 0.263 0.826 0.641 1.001l0.007 0.003zM16 8.854c-1.219 0-1.917-1.183-1.917-2.298v-0.915c0.715-0.234 1.579-0.597 2.447-1.487 0.44 0.644 0.896 1.207 1.392 1.731l-0.006-0.006v0.678c-0 1.136-0.667 2.298-1.917 2.298zM12.431 15.798l0.308-0.486c0.031-0.048 0.055-0.105 0.067-0.165l0.001-0.003 0.549-2.711 0.449 0.898c0.41 0.812 1.237 1.358 2.191 1.358 0.146 0 0.289-0.013 0.428-0.037l-0.015 0.002c0.798-0.145 1.453-0.653 1.798-1.343l0.007-0.014 0.432-0.863 0.549 2.711c0.013 0.064 0.037 0.12 0.069 0.171l-0.001-0.002 0.308 0.485c0.189 0.294 0.302 0.654 0.302 1.039 0 0.716-0.388 1.342-0.965 1.679l-0.009 0.005h-5.792c-0.586-0.341-0.974-0.967-0.974-1.683 0-0.386 0.112-0.745 0.306-1.047l-0.005 0.008zM10.338 20.554c0.041-0.047 0.073-0.103 0.094-0.164l0.001-0.004 0.861-2.583c0.166 0.466 0.43 0.863 0.768 1.18l0.002 0.002 0.402 2.412-1.044 3.132-4.165-0.378zM6.333 27.979c0.276 0 0.5-0.224 0.5-0.5v0-1.97l5.584 1.838-0.454 2.122-7.833-1.022c-0.407-0.055-0.763-0.242-1.030-0.516l-0-0c0.062 0.030 0.136 0.048 0.213 0.048h0z"></path>
</svg>
