<!-- Generated by IcoMoon.io -->
<svg version="1.1" xmlns="http://www.w3.org/2000/svg" width="32" height="32" viewBox="0 0 32 32">
<title>yoga</title>
<path d="M29.261 28.893l-0.991-0.33-0.254-0.254 0.432-5.615c0.005-0.066 0.009-0.143 0.009-0.221 0-1.586-1.286-2.872-2.872-2.872-0 0-0 0-0 0h0c-0.070 0-5.584 0.366-5.584 0.366v-2.223c0.228-0.189 0.573-0.526 0.699-0.972 0.211-0.752 0.044-1.433-0.482-1.969-0.395-0.403-0.91-0.568-1.365-0.713l-0.082-0.026-0.769-0.769v-0.793c0.552-0.001 0.999-0.448 1-1v-0.454l0.282-0.155c0.156-0.087 0.259-0.25 0.259-0.438 0-0.088-0.023-0.171-0.063-0.243l0.001 0.003-0.439-0.802v-0.088c0-0.002 0-0.003 0-0.005 0-0.551-0.221-1.050-0.579-1.414l0 0c-0.161-0.164-0.349-0.299-0.558-0.399l-0.012-0.005-0.392-3.527v-1.472c0-0 0-0 0-0 0-0.082-0.020-0.158-0.054-0.226l0.001 0.003-0.5-1c-0.084-0.165-0.253-0.276-0.447-0.276h-1.5c-0.276 0-0.5 0.224-0.5 0.5v0 2.5c0 0.019 0.001 0.039 0.003 0.058l-0-0.002 0.419 3.77c-0.134 0.108-0.253 0.225-0.358 0.354l-0.003 0.004c-0.289 0.352-0.485 0.791-0.542 1.272l-0.001 0.012-0.176 0.059c-0.2 0.068-0.342 0.255-0.342 0.474 0 0 0 0 0 0v0 2.5c-0.001 0.552-0.448 0.999-1 1h-0.191l0.138-0.276c0.033-0.065 0.053-0.142 0.053-0.224 0-0 0-0 0-0v0-3c0.001-0.552 0.448-0.999 1-1h0v-1c-1.104 0.001-1.999 0.896-2 2v2.882l-0.447 0.894c-0.033 0.065-0.053 0.142-0.053 0.224 0 0.276 0.224 0.5 0.5 0.5h1c1.104-0.001 1.999-0.896 2-2v-0.99c0.091 0.158 0.18 0.292 0.278 0.419l-0.007-0.009-0.085 1.273c-0.019 0.076-0.031 0.127-0.041 0.162-0.088 0.351-0.139 0.753-0.139 1.167 0 0.971 0.278 1.878 0.759 2.644l-0.012-0.021c0.395 0.622 0.798 1.266 1.198 1.917l-0.377 1.131-0.226 0.169c-0.88 0.663-1.443 1.706-1.443 2.88 0 0.235 0.023 0.464 0.065 0.687l-0.004-0.023-2.261 3.617-5.020 0.456c-0.305-0.297-0.723-0.481-1.183-0.481-0.002 0-0.003 0-0.005 0h0c-0.47 0.010-0.894 0.198-1.208 0.501l0.001-0.001-0.5 0.5c-0.299 0-0.742-0.084-1.017 0.053l-0.657 0.329c-0.369 0.188-0.618 0.565-0.618 1 0 0.617 0.5 1.118 1.117 1.118h10.353c0.835-0.001 1.575-0.411 2.029-1.040l0.005-0.007 0.902-1.262-0.814-0.581-0.902 1.262c-0.276 0.382-0.72 0.628-1.221 0.628h-3.471v-1.271l2.545-0.231c0.16-0.015 0.297-0.103 0.378-0.231l0.001-0.002 2.5-4c0.048-0.075 0.076-0.167 0.076-0.265 0-0.043-0.005-0.085-0.016-0.125l0.001 0.003c-0.050-0.19-0.079-0.409-0.079-0.634 0-0.849 0.407-1.603 1.036-2.077l0.007-0.005 0.217-0.163h2.333v1.699c0 1.032-0.96 1.985-1.53 2.784l-1.234 1.727 0.814 0.581 2.354-3.295c0.555-0.020 1.081-0.104 1.583-0.244l-0.047 0.011 4.061-1.108v6.764c0.001 0.597 0.484 1.081 1.081 1.081h2.838c0.597-0.001 1.081-0.484 1.081-1.081v-0c-0.001-0.475-0.306-0.878-0.732-1.023l-0.008-0.002zM18 9.034c0.026 0.087 0.041 0.186 0.041 0.289 0 0 0 0 0 0v0c0 0.001 0 0.002 0 0.004 0 0.16 0.030 0.313 0.085 0.453l-0.003-0.009c0.078 0.19 0.159 0.349 0.25 0.501l-0.010-0.017-0.104 0.057c-0.156 0.087-0.259 0.25-0.259 0.438 0 0 0 0 0 0v0zM3.191 30c-0.079 0-0.185-0.024-0.188-0.103 0.006-0.047 0.033-0.087 0.071-0.11l0.001-0c0.22-0.174 0.498-0.283 0.801-0.294l0.002-0c0.243-0.008 0.493 0.048 0.726-0.021 0.492-0.147 0.709-0.782 1.199-0.935 0.297-0.092 0.546 0.037 0.758 0.231 0.236 0.215 0.429 0.241 0.748 0.211l1.69-0.16v1.181zM15.935 16.322c-0.271-0.523-0.429-1.141-0.429-1.796 0-0.329 0.040-0.649 0.116-0.956l-0.006 0.027 0-0.002c0.179-0.981 0.181-2.040 0.248-3.045l0.134-2.017c0.001-0.010 0.001-0.022 0.001-0.033 0-0.019-0.001-0.039-0.003-0.057l0 0.002-0.497-4.473v-1.972h0.691l0.309 0.618v1.382c0 0.019 0.001 0.039 0.003 0.058l-0-0.002 0.497 4.473v6.472h1v-0.293l0.146 0.146c0.053 0.053 0.119 0.095 0.192 0.12l0.004 0.001c0.017 0.006 0.035 0.011 0.053 0.017-0.518 0.655-1.342 1.101-2.459 1.331zM19 20h-1.806l0.281-0.842c0.016-0.047 0.026-0.102 0.026-0.158 0-0.097-0.027-0.187-0.075-0.264l0.001 0.002c-0.049-0.080-0.098-0.159-0.147-0.238h1.721zM19.736 16.5c-0.032 0.113-0.143 0.303-0.496 0.567-0.143 0.094-0.236 0.252-0.24 0.432v0.001h-2.342q-0.087-0.14-0.175-0.279c1.031-0.265 2.159-0.795 2.867-1.843 0.057 0.038 0.106 0.079 0.152 0.124l-0-0c0.277 0.282 0.349 0.59 0.234 0.999zM25.803 22.103c-0.083-0.064-0.189-0.103-0.303-0.103-0.047 0-0.092 0.006-0.135 0.018l0.004-0.001-4.692 1.28c-0.214 0.062-0.476 0.116-0.744 0.151l-0.029 0.003c0.061-0.226 0.097-0.485 0.098-0.753v-1.732s5.537-0.368 5.584-0.368c0 0 0 0 0 0 1.034 0 1.872 0.838 1.872 1.872 0 0.051-0.002 0.102-0.006 0.152l0-0.007-0.26 3.383h-1.191v-3.5c0-0 0-0 0-0 0-0.161-0.077-0.305-0.195-0.396l-0.001-0.001zM28.919 30h-2.837c-0.045 0-0.081-0.036-0.081-0.081v0-2.919h1.114l-0.113 1.462c-0.001 0.011-0.001 0.025-0.001 0.038 0 0.138 0.056 0.263 0.146 0.354l0.5 0.5c0.053 0.053 0.119 0.095 0.192 0.12l0.004 0.001 1.101 0.367c0.018 0.006 0.032 0.017 0.043 0.032l0 0c0.009 0.012 0.014 0.028 0.014 0.044 0 0 0 0.001 0 0.001v-0c0 0.045-0.036 0.081-0.081 0.081v0z"></path>
</svg>
